<?xml version="1.0" encoding="utf-8"?>
<svg xmlns="http://www.w3.org/2000/svg" version="1.1" width="1000" height="800">

<line x1="100" y1="100" x2="200" y2="100" stroke="black" />
<text x="150" y="95" fill="black" >6;5</text>
<line x1="200" y1="100" x2="300" y2="100" stroke="black" />
<text x="250" y="95" fill="black" >9;8</text>
<line x1="300" y1="100" x2="400" y2="100" stroke="black" />
<text x="350" y="95" fill="black" >8;7</text>
<line x1="100" y1="200" x2="200" y2="200" stroke="black" />
<text x="150" y="195" fill="black" >5;6</text>
<line x1="200" y1="200" x2="300" y2="200" stroke="black" />
<text x="250" y="195" fill="black" >9;9</text>
<line x1="300" y1="200" x2="400" y2="200" stroke="black" />
<text x="350" y="195" fill="black" >2;6</text>
<line x1="100" y1="300" x2="200" y2="300" stroke="black" />
<text x="150" y="295" fill="black" >4;3</text>
<line x1="200" y1="300" x2="300" y2="300" stroke="black" />
<text x="250" y="295" fill="black" >1;1</text>
<line x1="300" y1="300" x2="400" y2="300" stroke="black" />
<text x="350" y="295" fill="black" >8;3</text>
<line x1="100" y1="400" x2="200" y2="400" stroke="black" />
<text x="150" y="395" fill="black" >3;1</text>
<line x1="200" y1="400" x2="300" y2="400" stroke="black" />
<text x="250" y="395" fill="black" >9;7</text>
<line x1="300" y1="400" x2="400" y2="400" stroke="black" />
<text x="350" y="395" fill="black" >3;5</text>
<line x1="100" y1="100" x2="100" y2="200" stroke="black" />
<text x="105" y="150" fill="black" >8;9</text>
<line x1="200" y1="100" x2="200" y2="200" stroke="black" />
<text x="205" y="150" fill="black" >7;2</text>
<line x1="300" y1="100" x2="300" y2="200" stroke="black" />
<text x="305" y="150" fill="black" >8;8</text>
<line x1="400" y1="100" x2="400" y2="200" stroke="black" />
<text x="405" y="150" fill="black" >6;4</text>
<line x1="100" y1="200" x2="100" y2="300" stroke="black" />
<text x="105" y="250" fill="black" >8;3</text>
<line x1="200" y1="200" x2="200" y2="300" stroke="black" />
<text x="205" y="250" fill="black" >9;7</text>
<line x1="300" y1="200" x2="300" y2="300" stroke="black" />
<text x="305" y="250" fill="black" >4;3</text>
<line x1="400" y1="200" x2="400" y2="300" stroke="black" />
<text x="405" y="250" fill="black" >1;4</text>
<line x1="100" y1="300" x2="100" y2="400" stroke="black" />
<text x="105" y="350" fill="black" >1;7</text>
<line x1="200" y1="300" x2="200" y2="400" stroke="black" />
<text x="205" y="350" fill="black" >7;3</text>
<line x1="300" y1="300" x2="300" y2="400" stroke="black" />
<text x="305" y="350" fill="black" >6;4</text>
<line x1="400" y1="300" x2="400" y2="400" stroke="black" />
<text x="405" y="350" fill="black" >1;8</text>
<circle cx="100" cy="100" r="5" fill="black" />
<text x="83" y="95" fill="black" >0</text>
<circle cx="200" cy="100" r="5" fill="black" />
<text x="183" y="95" fill="black" >1</text>
<circle cx="300" cy="100" r="5" fill="black" />
<text x="283" y="95" fill="black" >2</text>
<circle cx="400" cy="100" r="5" fill="black" />
<text x="383" y="95" fill="black" >3</text>
<circle cx="100" cy="200" r="5" fill="black" />
<text x="83" y="195" fill="black" >4</text>
<circle cx="200" cy="200" r="5" fill="black" />
<text x="183" y="195" fill="black" >5</text>
<circle cx="300" cy="200" r="5" fill="black" />
<text x="283" y="195" fill="black" >6</text>
<circle cx="400" cy="200" r="5" fill="black" />
<text x="383" y="195" fill="black" >7</text>
<circle cx="100" cy="300" r="5" fill="black" />
<text x="83" y="295" fill="black" >8</text>
<circle cx="200" cy="300" r="5" fill="black" />
<text x="183" y="295" fill="black" >9</text>
<circle cx="300" cy="300" r="5" fill="black" />
<text x="283" y="295" fill="black" >10</text>
<circle cx="400" cy="300" r="5" fill="black" />
<text x="383" y="295" fill="black" >11</text>
<circle cx="100" cy="400" r="5" fill="black" />
<text x="83" y="395" fill="black" >12</text>
<circle cx="200" cy="400" r="5" fill="black" />
<text x="183" y="395" fill="black" >13</text>
<circle cx="300" cy="400" r="5" fill="black" />
<text x="283" y="395" fill="black" >14</text>
<circle cx="400" cy="400" r="5" fill="black" />
<text x="383" y="395" fill="black" >15</text>
<line x1="100" y1="300" x2="200" y2="300" stroke="red" />
<text x="150" y="295" fill="red" >4;3</text>
<line x1="200" y1="300" x2="300" y2="300" stroke="red" />
<text x="250" y="295" fill="red" >1;1</text>
<line x1="300" y1="400" x2="400" y2="400" stroke="red" />
<text x="350" y="395" fill="red" >3;5</text>
<line x1="100" y1="100" x2="100" y2="200" stroke="red" />
<text x="105" y="150" fill="red" >8;9</text>
<line x1="200" y1="100" x2="200" y2="200" stroke="red" />
<text x="205" y="150" fill="red" >7;2</text>
<line x1="300" y1="100" x2="300" y2="200" stroke="red" />
<text x="305" y="150" fill="red" >8;8</text>
<line x1="400" y1="100" x2="400" y2="200" stroke="red" />
<text x="405" y="150" fill="red" >6;4</text>
<line x1="100" y1="200" x2="100" y2="300" stroke="red" />
<text x="105" y="250" fill="red" >8;3</text>
<line x1="200" y1="200" x2="200" y2="300" stroke="red" />
<text x="205" y="250" fill="red" >9;7</text>
<line x1="300" y1="200" x2="300" y2="300" stroke="red" />
<text x="305" y="250" fill="red" >4;3</text>
<line x1="400" y1="200" x2="400" y2="300" stroke="red" />
<text x="405" y="250" fill="red" >1;4</text>
<line x1="100" y1="300" x2="100" y2="400" stroke="red" />
<text x="105" y="350" fill="red" >1;7</text>
<line x1="200" y1="300" x2="200" y2="400" stroke="red" />
<text x="205" y="350" fill="red" >7;3</text>
<line x1="300" y1="300" x2="300" y2="400" stroke="red" />
<text x="305" y="350" fill="red" >6;4</text>
<line x1="400" y1="300" x2="400" y2="400" stroke="red" />
<text x="405" y="350" fill="red" >1;8</text>
<circle cx="100" cy="100" r="5" fill="black" />
<text x="83" y="95" fill="black" >0</text>
<circle cx="200" cy="100" r="5" fill="black" />
<text x="183" y="95" fill="black" >1</text>
<circle cx="300" cy="100" r="5" fill="black" />
<text x="283" y="95" fill="black" >2</text>
<circle cx="400" cy="100" r="5" fill="black" />
<text x="383" y="95" fill="black" >3</text>
<circle cx="100" cy="200" r="5" fill="black" />
<text x="83" y="195" fill="black" >4</text>
<circle cx="200" cy="200" r="5" fill="black" />
<text x="183" y="195" fill="black" >5</text>
<circle cx="300" cy="200" r="5" fill="black" />
<text x="283" y="195" fill="black" >6</text>
<circle cx="400" cy="200" r="5" fill="black" />
<text x="383" y="195" fill="black" >7</text>
<circle cx="100" cy="300" r="5" fill="black" />
<text x="83" y="295" fill="black" >8</text>
<circle cx="200" cy="300" r="5" fill="black" />
<text x="183" y="295" fill="black" >9</text>
<circle cx="300" cy="300" r="5" fill="black" />
<text x="283" y="295" fill="black" >10</text>
<circle cx="400" cy="300" r="5" fill="black" />
<text x="383" y="295" fill="black" >11</text>
<circle cx="100" cy="400" r="5" fill="black" />
<text x="83" y="395" fill="black" >12</text>
<circle cx="200" cy="400" r="5" fill="black" />
<text x="183" y="395" fill="black" >13</text>
<circle cx="300" cy="400" r="5" fill="black" />
<text x="283" y="395" fill="black" >14</text>
<circle cx="400" cy="400" r="5" fill="black" />
<text x="383" y="395" fill="black" >15</text>


</svg>
