<?xml version="1.0" encoding="utf-8"?>
<svg xmlns="http://www.w3.org/2000/svg" version="1.1" width="1000" height="800">

<text x="50" y="50" fill="black" >(28;25)</text>
<line x1="100" y1="100" x2="100" y2="400" stroke="black" />
<text x="105" y="250" fill="black" >2;3</text>
<line x1="200" y1="200" x2="300" y2="200" stroke="black" />
<text x="250" y="195" fill="black" >6;4</text>
<line x1="400" y1="100" x2="300" y2="200" stroke="black" />
<text x="355" y="155" fill="black" >7;2</text>
<line x1="400" y1="100" x2="400" y2="400" stroke="black" />
<text x="405" y="250" fill="black" >6;3</text>
<line x1="300" y1="200" x2="300" y2="300" stroke="black" />
<text x="305" y="250" fill="black" >1;2</text>
<line x1="200" y1="300" x2="100" y2="400" stroke="black" />
<text x="155" y="355" fill="black" >2;7</text>
<line x1="100" y1="400" x2="400" y2="400" stroke="black" />
<text x="250" y="395" fill="black" >4;4</text>
<circle cx="100" cy="100" r="5" fill="black" />
<text x="83" y="95" fill="black" >0</text>
<circle cx="400" cy="100" r="5" fill="black" />
<text x="383" y="95" fill="black" >1</text>
<circle cx="200" cy="200" r="5" fill="black" />
<text x="183" y="195" fill="black" >2</text>
<circle cx="300" cy="200" r="5" fill="black" />
<text x="283" y="195" fill="black" >3</text>
<circle cx="200" cy="300" r="5" fill="black" />
<text x="183" y="295" fill="black" >4</text>
<circle cx="300" cy="300" r="5" fill="black" />
<text x="283" y="295" fill="black" >5</text>
<circle cx="100" cy="400" r="5" fill="black" />
<text x="83" y="395" fill="black" >6</text>
<circle cx="400" cy="400" r="5" fill="black" />
<text x="383" y="395" fill="black" >7</text>


</svg>
