<?xml version="1.0" encoding="utf-8"?>
<svg xmlns="http://www.w3.org/2000/svg" version="1.1" width="1000" height="800">

<text x="50" y="50" fill="black" >(44;34)4524</text>
<line x1="225" y1="85" x2="175" y2="170" stroke="black" />
<text x="205" y="132.5" fill="black" >6;4</text>
<line x1="175" y1="170" x2="125" y2="255" stroke="black" />
<text x="155" y="217.5" fill="black" >5;7</text>
<line x1="275" y1="170" x2="225" y2="255" stroke="black" />
<text x="255" y="217.5" fill="black" >2;1</text>
<line x1="275" y1="170" x2="325" y2="255" stroke="black" />
<text x="305" y="217.5" fill="black" >4;5</text>
<line x1="125" y1="255" x2="75" y2="340" stroke="black" />
<text x="105" y="302.5" fill="black" >3;6</text>
<line x1="225" y1="255" x2="175" y2="340" stroke="black" />
<text x="205" y="302.5" fill="black" >3;6</text>
<line x1="325" y1="255" x2="275" y2="340" stroke="black" />
<text x="305" y="302.5" fill="black" >7;1</text>
<line x1="325" y1="255" x2="375" y2="340" stroke="black" />
<text x="355" y="302.5" fill="black" >8;3</text>
<line x1="75" y1="340" x2="175" y2="340" stroke="black" />
<text x="125" y="335" fill="black" >6;1</text>
<circle cx="225" cy="85" r="5" fill="black" />
<text x="208" y="80" fill="black" >0</text>
<circle cx="175" cy="170" r="5" fill="black" />
<text x="158" y="165" fill="black" >1</text>
<circle cx="275" cy="170" r="5" fill="black" />
<text x="258" y="165" fill="black" >2</text>
<circle cx="125" cy="255" r="5" fill="black" />
<text x="108" y="250" fill="black" >3</text>
<circle cx="225" cy="255" r="5" fill="black" />
<text x="208" y="250" fill="black" >4</text>
<circle cx="325" cy="255" r="5" fill="black" />
<text x="308" y="250" fill="black" >5</text>
<circle cx="75" cy="340" r="5" fill="black" />
<text x="58" y="335" fill="black" >6</text>
<circle cx="175" cy="340" r="5" fill="black" />
<text x="158" y="335" fill="black" >7</text>
<circle cx="275" cy="340" r="5" fill="black" />
<text x="258" y="335" fill="black" >8</text>
<circle cx="375" cy="340" r="5" fill="black" />
<text x="358" y="335" fill="black" >9</text>


</svg>
